{"title":"I.Heart.Huckabees.2004.1080p.AMZN.WEBRip.DDP5.1.x264-monkee","magnet":"magnet:?xt=urn:btih:c889a83a4adcd06b2463ff3cc708f993261138ea&dn=I.Heart.Huckabees.2004.1080p.AMZN.WEBRip.DDP5.1.x264-monkee&tr=udp%3A%2F%2Ftracker.leechers-paradise.org%3A6969&tr=udp%3A%2F%2Fzer0day.ch%3A1337&tr=udp%3A%2F%2Fopen.demonii.com%3A1337&tr=udp%3A%2F%2Ftracker.coppersurfer.tk%3A6969&tr=udp%3A%2F%2Fexodus.desync.com%3A6969","uploader":"brablay","categoryP":"video","categoryS":"hd___movies","size":"9654481769","seeders":"0","leechers":"0","description":"Video\r\nID                                       : 1\r\nFormat                                   : AVC\r\nFormat/Info                              : Advanced Video Codec\r\nFormat profile                           : <a href=\"/cdn-cgi/l/email-protection\" class=\"__cf_email__\" data-cfemail=\"0b43626c634b473f\">[email&#xA0;protected]</a>\r\nFormat settings, CABAC                   : Yes\r\nFormat settings, ReFrames                : 4 frames\r\nCodec ID                                 : V_MPEG4/ISO/AVC\r\nDuration                                 : 1 h 46 min\r\nBit rate mode                            : Variable\r\nBit rate                                 : 11.4 Mb/s\r\nMaximum bit rate                         : 15.0 Mb/s\r\nWidth                                    : 1 920 pixels\r\nHeight                                   : 816 pixels\r\nDisplay aspect ratio                     : 2.35:1\r\nFrame rate mode                          : Constant\r\nFrame rate                               : 23.976 (24000/1001) FPS\r\nColor space                              : YUV\r\nChroma subsampling                       : 4:2:0\r\nBit depth                                : 8 bits\r\nScan type                                : Progressive\r\nBits/(Pixel*Frame)                       : 0.304\r\nStream size                              : 8.51 GiB (95%)\r\nTitle                                    : 1920x816p x264 (11737 kbps)\r\nWriting library                          : x264 core 148 r2623 d5b2374\r\nEncoding settings                        : cabac=1 / ref=4 / deblock=1:-1:-1 / analyse=0x3:0x133 / me=umh / subme=9 / psy=1 / psy_rd=1.00:0.15 / mixed_ref=1 / me_range=24 / chroma_me=1 / trellis=2 / 8x8dct=1 / cqm=0 / deadzone=21,11 / fast_pskip=1 / chroma_qp_offset=-3 / threads=25 / lookahead_threads=4 / sliced_threads=0 / nr=150 / decimate=1 / interlaced=0 / bluray_compat=0 / constrained_intra=0 / bframes=8 / b_pyramid=2 / b_adapt=2 / b_bias=0 / direct=3 / weightb=1 / open_gop=0 / weightp=2 / keyint=120 / keyint_min=61 / scenecut=0 / intra_refresh=0 / rc_lookahead=120 / rc=crf / mbtree=1 / crf=18.0 / qcomp=0.60 / qpmin=0 / qpmax=69 / qpstep=4 / vbv_maxrate=15000 / vbv_bufsize=31250 / crf_max=0.0 / nal_hrd=vbr / filler=0 / ip_ratio=1.40 / aq=3:1.00\r\nLanguage                                 : English\r\nDefault                                  : Yes\r\nForced                                   : No\r\nColor range                              : Limited\r\nColor primaries                          : BT.709\r\nTransfer characteristics                 : BT.709\r\nMatrix coefficients                      : BT.709\r\n\r\n\r\nAudio\r\nID                                       : 2\r\nFormat                                   : E-AC-3\r\nFormat/Info                              : Enhanced Audio Coding 3\r\nFormat settings, Endianness              : Big\r\nCodec ID                                 : A_EAC3\r\nDuration                                 : 1 h 46 min\r\nBit rate mode                            : Constant\r\nBit rate                                 : 640 kb/s\r\nChannel(s)                               : 6 channels\r\nChannel positions                        : Front: L C R, Side: L R, LFE\r\nSampling rate                            : 48.0 kHz\r\nFrame rate                               : 187.500 FPS (256 spf)\r\nCompression mode                         : Lossy\r\nStream size                              : 488 MiB (5%)\r\nTitle                                    : DD+ 5.1 (640 kbps)\r\nLanguage                                 : English\r\nService kind                             : Complete Main\r\nDefault                                  : Yes\r\nForced                                   : Yes","last_updated":"2017-11-05T12:02:07.638Z","parsed":{"xt":"urn:btih:c889a83a4adcd06b2463ff3cc708f993261138ea","dn":"I.Heart.Huckabees.2004.1080p.AMZN.WEBRip.DDP5.1.x264-monkee","tr":["udp://exodus.desync.com:6969","udp://open.demonii.com:1337","udp://tracker.coppersurfer.tk:6969","udp://tracker.leechers-paradise.org:6969","udp://zer0day.ch:1337"],"infoHash":"c889a83a4adcd06b2463ff3cc708f993261138ea","infoHashBuffer":{"type":"Buffer","data":[200,137,168,58,74,220,208,107,36,99,255,60,199,8,249,147,38,17,56,234]},"name":"I.Heart.Huckabees.2004.1080p.AMZN.WEBRip.DDP5.1.x264-monkee","announce":["udp://exodus.desync.com:6969","udp://open.demonii.com:1337","udp://tracker.coppersurfer.tk:6969","udp://tracker.leechers-paradise.org:6969","udp://zer0day.ch:1337"],"urlList":[]}}